<?xml version="1.0" standalone="no"?>
<!DOCTYPE svg PUBLIC "-//W3C//DTD SVG 20010904//EN"
 "http://www.w3.org/TR/2001/REC-SVG-20010904/DTD/svg10.dtd">
<svg version="1.0" xmlns="http://www.w3.org/2000/svg"
 width="645.000000pt" height="645.000000pt" viewBox="0 0 645.000000 645.000000"
 preserveAspectRatio="xMidYMid meet">
<metadata>
Created by potrace 1.11, written by Peter Selinger 2001-2013
</metadata>
<g transform="translate(0.000000,645.000000) scale(0.100000,-0.100000)"
fill="#000000" stroke="none">
<path d="M3028 6445 c-1 -1 -37 -5 -78 -9 -725 -58 -1427 -391 -1949 -925
-503 -516 -797 -1123 -905 -1871 -28 -196 -28 -673 0 -820 2 -14 6 -45 9 -70
5 -53 40 -230 62 -315 8 -33 17 -69 19 -79 8 -40 77 -244 121 -356 339 -859
1059 -1546 1929 -1838 116 -39 347 -100 409 -108 17 -2 41 -6 55 -9 14 -3 47
-8 74 -11 28 -3 53 -7 56 -9 17 -10 217 -20 405 -19 189 0 302 6 375 19 14 2
43 7 65 10 210 29 514 111 690 185 217 92 338 154 500 256 566 355 1015 894
1267 1521 66 167 131 371 154 488 2 11 8 43 14 70 6 28 13 61 15 75 11 51 36
237 43 315 14 160 6 587 -13 687 -3 11 -7 46 -11 77 -3 31 -8 58 -9 61 -2 3
-6 26 -10 50 -4 25 -13 74 -22 110 -8 36 -16 72 -18 80 -13 64 -76 267 -118
380 -335 896 -1072 1607 -1973 1905 -100 33 -327 92 -381 100 -39 5 -95 15
-113 20 -8 2 -42 7 -75 10 -33 3 -73 8 -90 11 -35 5 -491 14 -497 9z"/>
</g>
</svg>
