<?xml version="1.0" encoding="UTF-8"?>
<!DOCTYPE svg PUBLIC "-//W3C//DTD SVG 1.1//EN" "http://www.w3.org/Graphics/SVG/1.1/DTD/svg11.dtd">
<svg version="1.1" xmlns="http://www.w3.org/2000/svg" xmlns:xlink="http://www.w3.org/1999/xlink">
  <g>
    <g>
      <path d="M238.877,24.53 C238.877,27.661 236.339,30.199 233.208,30.199 C230.874,30.131 230.169,29.362 228.639,27.832 L230.373,33.033 L230.373,92.561 L221.869,118.073 L219.298,118.073 L216.679,121.011 L215.544,119.999 C213.517,121.237 214.3,121.04 213.463,121.242 L213.512,122.76 L207.194,122.962 L207.142,121.333 C205.3,120.659 206.037,121.106 204.832,120.167 L203.599,121.319 L199.635,116.37 L201.304,115.083 L200.601,112.636 L198.511,113.103 L197.132,106.934 L199.154,106.483 L198.697,104.656 L196.753,105.076 L195.418,98.897 L197.163,98.52 L196.681,96.592 L194.908,96.926 L193.74,90.714 L195.377,90.406 L195.366,90.223 L195.366,87.601 L193.561,87.601 L193.561,81.28 L195.366,81.28 L195.366,79.432 L193.561,79.432 L193.561,73.111 L195.366,73.111 L195.366,71.263 L193.561,71.263 L193.561,64.942 L195.366,64.942 L195.366,63.094 L193.561,63.094 L193.561,56.773 L195.366,56.773 L195.366,54.925 L193.561,54.925 L193.561,48.604 L195.366,48.604 L195.366,46.756 L193.561,46.756 L193.561,40.435 L195.366,40.435 L195.366,38.587 L193.561,38.587 L193.561,32.266 L195.366,32.266 L195.366,30.236 L195.341,30.346 L193.249,29.886 L194.604,23.712 L196.217,24.066 L196.316,23.836 L197.054,22.359 L195.26,21.495 L197.885,16.12 L199.885,16.697 L200.192,15.612 L198.497,14.303 L202.361,9.3 L203.651,10.297 C204.671,9.235 204.185,9.551 204.943,9.132 L204.596,7.435 L210.789,6.169 L211.091,7.65 C212.464,7.722 211.541,7.614 213.783,8.37 L214.7,7.203 L219.669,11.11 L218.116,12.614 L219.251,15.465 L221.078,14.852 L221.755,16.868 L224.704,16.026 L227.538,24.529 C227.665,21.216 230.05,19.178 233.208,18.86 C236.339,18.86 238.877,21.399 238.877,24.53 z" fill-opacity="0" stroke="#FF0000" stroke-width="0.5" stroke-linejoin="round"/>
      <path d="M223.413,87.792 C223.413,88.793 223.262,89.785 222.966,90.721 L216.333,111.738 C213.914,119.402 204.62,118.773 202.949,110.832 L198.527,89.815 C198.387,89.154 198.317,88.474 198.317,87.792 L198.317,29.996 C198.317,28.702 198.571,27.424 199.058,26.266 L203.48,15.758 C206.222,9.244 214.18,9.74 216.333,16.559 L222.966,37.576 C223.262,38.513 223.413,39.505 223.413,40.505 L223.413,87.792 z" fill-opacity="0" stroke="#0000FF" stroke-width="0.5" stroke-linejoin="round"/>
      <path d="M218.817,25.512 L210.031,25.512 L210.031,102.047 L218.734,102.047 L215.833,111.238 L215.707,111.557 L215.825,110.384 C215.825,106.746 212.876,103.797 209.238,103.797 C205.6,103.797 202.652,106.746 202.652,110.384 L202.755,111.407 L202.449,110.332 L198.027,89.315 C197.887,88.654 197.817,87.974 197.817,87.292 L197.817,77.259 C197.817,79.481 199.619,81.283 201.841,81.283 C204.063,81.283 205.865,79.481 205.865,77.259 L205.865,77.259 C205.865,75.036 204.063,73.235 201.841,73.235 C199.619,73.235 197.817,75.036 197.817,77.259 L197.817,68.384 C197.817,70.606 199.619,72.408 201.841,72.408 C204.063,72.408 205.865,70.606 205.865,68.384 L205.865,68.384 C205.865,66.161 204.063,64.36 201.841,64.36 C199.619,64.36 197.817,66.161 197.817,68.384 L197.817,29.496 C197.817,28.202 198.071,26.924 198.558,25.766 L202.981,15.258 C203.573,14.078 203.286,14.449 203.638,14.014 C202.739,16.15 202.971,15.124 202.777,17.05 C202.777,20.619 205.669,23.512 209.238,23.512 C212.47,23.186 214.64,21.53 215.569,18.352 L215.7,17.05 C215.509,15.162 215.738,16.15 214.883,14.12 C215.6,15.216 215.258,14.582 215.833,16.059 L218.817,25.512 z M206.075,49.384 C206.075,47.161 204.273,45.36 202.051,45.36 C199.828,45.36 198.027,47.161 198.027,49.384 C198.027,51.606 199.828,53.408 202.051,53.408 C204.273,53.408 206.075,51.606 206.075,49.384 z M204.2,49.384 C204.2,50.571 203.238,51.533 202.051,51.533 C200.864,51.533 199.902,50.571 199.902,49.384 C199.902,48.197 200.864,47.235 202.051,47.235 C203.238,47.235 204.2,48.197 204.2,49.384 z M206.075,28.634 C206.075,26.411 204.273,24.61 202.051,24.61 C199.828,24.61 198.027,26.411 198.027,28.634 C198.027,30.856 199.828,32.658 202.051,32.658 C204.273,32.658 206.075,30.856 206.075,28.634 z M204.2,28.634 C204.2,29.821 203.238,30.783 202.051,30.783 C200.864,30.783 199.902,29.821 199.902,28.634 C199.902,27.447 200.864,26.485 202.051,26.485 C203.238,26.485 204.2,27.447 204.2,28.634 z M206.075,87.259 C206.075,85.036 204.273,83.235 202.051,83.235 C199.828,83.235 198.027,85.036 198.027,87.259 C198.027,89.481 199.828,91.283 202.051,91.283 C204.273,91.283 206.075,89.481 206.075,87.259 z M204.2,87.259 C204.2,88.446 203.238,89.408 202.051,89.408 C200.864,89.408 199.902,88.446 199.902,87.259 C199.902,86.072 200.864,85.11 202.051,85.11 C203.238,85.11 204.2,86.072 204.2,87.259 z M206.075,37.634 C206.075,35.411 204.273,33.61 202.051,33.61 C199.828,33.61 198.027,35.411 198.027,37.634 C198.027,39.856 199.828,41.658 202.051,41.658 C204.273,41.658 206.075,39.856 206.075,37.634 z M204.2,37.634 C204.2,38.821 203.238,39.783 202.051,39.783 C200.864,39.783 199.902,38.821 199.902,37.634 C199.902,36.447 200.864,35.485 202.051,35.485 C203.238,35.485 204.2,36.447 204.2,37.634 z M206.075,58.259 C206.075,56.036 204.273,54.235 202.051,54.235 C199.828,54.235 198.027,56.036 198.027,58.259 C198.027,60.481 199.828,62.283 202.051,62.283 C204.273,62.283 206.075,60.481 206.075,58.259 z M204.2,58.259 C204.2,59.446 203.238,60.408 202.051,60.408 C200.864,60.408 199.902,59.446 199.902,58.259 C199.902,57.072 200.864,56.11 202.051,56.11 C203.238,56.11 204.2,57.072 204.2,58.259 z M207.95,96.085 C207.95,93.863 206.148,92.061 203.926,92.061 C201.703,92.061 199.902,93.863 199.902,96.085 C199.902,98.308 201.703,100.109 203.926,100.109 C206.148,100.109 207.95,98.308 207.95,96.085 z M206.075,96.085 C206.075,97.272 205.113,98.234 203.926,98.234 C202.739,98.234 201.777,97.272 201.777,96.085 C201.777,94.898 202.739,93.936 203.926,93.936 C205.113,93.936 206.075,94.898 206.075,96.085 z" fill="#000000"/>
      <path d="M203.99,68.384 C203.99,69.571 203.028,70.533 201.841,70.533 C200.654,70.533 199.692,69.571 199.692,68.384 C199.692,67.197 200.654,66.235 201.841,66.235 C203.028,66.235 203.99,67.197 203.99,68.384 z" fill="#000000"/>
      <path d="M203.99,77.259 C203.99,78.446 203.028,79.408 201.841,79.408 C200.654,79.408 199.692,78.446 199.692,77.259 C199.692,76.072 200.654,75.11 201.841,75.11 C203.028,75.11 203.99,76.072 203.99,77.259 z" fill="#000000"/>
      <path d="M211.387,110.384 C211.387,111.571 210.425,112.533 209.238,112.533 C208.051,112.533 207.089,111.571 207.089,110.384 C207.089,109.197 208.051,108.235 209.238,108.235 C210.425,108.235 211.387,109.197 211.387,110.384 z" fill="#000000"/>
      <path d="M211.387,17.05 C211.387,18.237 210.425,19.199 209.238,19.199 C208.051,19.199 207.089,18.237 207.089,17.05 C207.089,15.863 208.051,14.901 209.238,14.901 C210.425,14.901 211.387,15.863 211.387,17.05 z" fill="#000000"/>
      <path d="M206.99,11.118 L206.58,11.29 C206.814,11.137 206.68,11.2 206.99,11.118 z" fill="#000000"/>
      <path d="M214.137,12.978 L213.912,12.754 C214.108,12.916 214.042,12.833 214.137,12.978 z" fill="#000000"/>
      <path d="M230.373,92.561 L226.121,92.561" fill-opacity="0" stroke="#FF0000" stroke-width="0.5"/>
      <path d="M230.373,33.034 L226.121,33.034" fill-opacity="0" stroke="#FF0000" stroke-width="0.5"/>
      <path d="M230.373,64.215 L226.121,64.215" fill-opacity="0" stroke="#FF0000" stroke-width="0.5"/>
    </g>
    <g>
      <path d="M164.128,102.619 L175.748,102.619 L175.748,34.363 C176.58,35.503 177.67,35.934 179.018,36.07 C181.241,36.07 183.042,34.268 183.042,32.046 C183.042,29.824 181.241,28.022 179.018,28.022 C177.402,28.051 176.811,28.667 175.748,29.729 L175.748,26.084 L164.21,26.084 L167.111,16.894 L167.237,16.574 L167.119,17.747 C167.119,21.385 170.068,24.334 173.706,24.334 C177.344,24.334 180.292,21.385 180.292,17.747 L180.189,16.724 L180.495,17.799 L184.917,38.816 C185.057,39.477 185.127,40.157 185.127,40.839 L185.127,50.872 C185.127,48.65 183.325,46.848 181.103,46.848 C178.881,46.848 177.079,48.65 177.079,50.872 L177.079,50.872 C177.079,53.095 178.881,54.896 181.103,54.896 C183.325,54.896 185.127,53.095 185.127,50.872 L185.127,59.747 C185.127,57.525 183.325,55.723 181.103,55.723 C178.881,55.723 177.079,57.525 177.079,59.747 L177.079,59.747 C177.079,61.97 178.881,63.771 181.103,63.771 C183.325,63.771 185.127,61.97 185.127,59.747 L185.127,98.635 C185.127,99.93 184.873,101.207 184.386,102.365 L179.964,112.873 C179.371,114.053 179.658,113.682 179.306,114.118 C180.205,111.981 179.973,113.007 180.167,111.081 C180.167,107.512 177.275,104.619 173.706,104.619 C170.474,104.945 168.304,106.601 167.375,109.779 L167.244,111.081 C167.435,112.969 167.206,111.981 168.061,114.011 C167.344,112.916 167.686,113.549 167.111,112.072 L164.128,102.619 z M176.869,78.747 C176.869,80.97 178.671,82.771 180.893,82.771 C183.116,82.771 184.917,80.97 184.917,78.747 C184.917,76.525 183.116,74.723 180.893,74.723 C178.671,74.723 176.869,76.525 176.869,78.747 z M178.744,78.747 C178.744,77.56 179.706,76.598 180.893,76.598 C182.08,76.598 183.042,77.56 183.042,78.747 C183.042,79.934 182.08,80.896 180.893,80.896 C179.706,80.896 178.744,79.934 178.744,78.747 z M176.869,99.497 C176.869,101.72 178.671,103.521 180.893,103.521 C183.116,103.521 184.917,101.72 184.917,99.497 C184.917,97.275 183.116,95.473 180.893,95.473 C178.671,95.473 176.869,97.275 176.869,99.497 z M178.744,99.497 C178.744,98.31 179.706,97.348 180.893,97.348 C182.08,97.348 183.042,98.31 183.042,99.497 C183.042,100.684 182.08,101.646 180.893,101.646 C179.706,101.646 178.744,100.684 178.744,99.497 z M176.869,40.872 C176.869,43.095 178.671,44.896 180.893,44.896 C183.116,44.896 184.917,43.095 184.917,40.872 C184.917,38.65 183.116,36.848 180.893,36.848 C178.671,36.848 176.869,38.65 176.869,40.872 z M178.744,40.872 C178.744,39.685 179.706,38.723 180.893,38.723 C182.08,38.723 183.042,39.685 183.042,40.872 C183.042,42.059 182.08,43.021 180.893,43.021 C179.706,43.021 178.744,42.059 178.744,40.872 z M176.869,90.497 C176.869,92.72 178.671,94.521 180.893,94.521 C183.116,94.521 184.917,92.72 184.917,90.497 C184.917,88.275 183.116,86.473 180.893,86.473 C178.671,86.473 176.869,88.275 176.869,90.497 z M178.744,90.497 C178.744,89.31 179.706,88.348 180.893,88.348 C182.08,88.348 183.042,89.31 183.042,90.497 C183.042,91.684 182.08,92.646 180.893,92.646 C179.706,92.646 178.744,91.684 178.744,90.497 z M176.869,69.872 C176.869,72.095 178.671,73.896 180.893,73.896 C183.116,73.896 184.917,72.095 184.917,69.872 C184.917,67.65 183.116,65.848 180.893,65.848 C178.671,65.848 176.869,67.65 176.869,69.872 z M178.744,69.872 C178.744,68.685 179.706,67.723 180.893,67.723 C182.08,67.723 183.042,68.685 183.042,69.872 C183.042,71.059 182.08,72.021 180.893,72.021 C179.706,72.021 178.744,71.059 178.744,69.872 z" fill="#000000"/>
      <path d="M178.954,59.747 C178.954,58.56 179.916,57.598 181.103,57.598 C182.29,57.598 183.252,58.56 183.252,59.747 C183.252,60.934 182.29,61.896 181.103,61.896 C179.916,61.896 178.954,60.934 178.954,59.747 z" fill="#000000"/>
      <path d="M178.954,50.872 C178.954,49.685 179.916,48.723 181.103,48.723 C182.29,48.723 183.252,49.685 183.252,50.872 C183.252,52.059 182.29,53.021 181.103,53.021 C179.916,53.021 178.954,52.059 178.954,50.872 z" fill="#000000"/>
      <path d="M176.869,32.046 C176.869,30.859 177.831,29.897 179.018,29.897 C180.205,29.897 181.167,30.859 181.167,32.046 C181.167,33.233 180.205,34.195 179.018,34.195 C177.831,34.195 176.869,33.233 176.869,32.046 z" fill="#000000"/>
      <path d="M171.557,17.747 C171.557,16.56 172.519,15.598 173.706,15.598 C174.893,15.598 175.855,16.56 175.855,17.747 C175.855,18.934 174.893,19.896 173.706,19.896 C172.519,19.896 171.557,18.934 171.557,17.747 z" fill="#000000"/>
      <path d="M171.557,111.081 C171.557,109.894 172.519,108.932 173.706,108.932 C174.893,108.932 175.855,109.894 175.855,111.081 C175.855,112.268 174.893,113.23 173.706,113.23 C172.519,113.23 171.557,112.268 171.557,111.081 z" fill="#000000"/>
      <path d="M142.232,104.602 C142.232,99.905 146.04,96.098 150.736,96.098 C152.943,96.32 151.921,96.048 153.821,96.847 L153.571,96.098 L153.571,36.57 L162.075,11.058 L164.646,11.058 L167.265,8.12 L168.4,9.133 C170.427,7.894 169.644,8.092 170.481,7.889 L170.432,6.371 L176.75,6.169 L176.802,7.798 C178.644,8.472 177.907,8.025 179.112,8.965 L180.345,7.813 L184.309,12.762 L182.64,14.049 L183.343,16.495 L185.433,16.028 L186.812,22.197 L184.79,22.649 L185.247,24.476 L187.191,24.056 L188.526,30.234 L186.781,30.611 L187.263,32.539 L189.036,32.205 L190.204,38.418 L188.567,38.725 L188.578,38.909 L188.578,41.53 L190.383,41.53 L190.383,47.851 L188.578,47.851 L188.578,49.699 L190.383,49.699 L190.383,56.02 L188.578,56.02 L188.578,57.868 L190.383,57.868 L190.383,64.189 L188.578,64.189 L188.578,66.037 L190.383,66.037 L190.383,72.358 L188.578,72.358 L188.578,74.206 L190.383,74.206 L190.383,80.527 L188.578,80.527 L188.578,82.375 L190.383,82.375 L190.383,88.696 L188.578,88.696 L188.578,90.544 L190.383,90.544 L190.383,96.865 L188.578,96.865 L188.578,98.896 L188.603,98.786 L190.695,99.245 L189.34,105.419 L187.727,105.065 L187.628,105.296 L186.89,106.772 L188.684,107.637 L186.059,113.012 L184.059,112.435 L183.752,113.519 L185.447,114.828 L181.583,119.831 L180.293,118.834 C179.273,119.896 179.759,119.58 179.001,119.999 L179.348,121.697 L173.155,122.962 L172.853,121.482 C171.48,121.41 172.403,121.517 170.161,120.761 L169.244,121.928 L164.275,118.021 L165.828,116.517 L164.693,113.666 L162.866,114.28 L162.189,112.263 L159.24,113.106 L157.901,109.088 C157.007,111.242 154.466,112.317 152.45,112.933 C151.901,113.101 151.308,113.048 150.736,113.106 C146.04,113.106 142.232,109.298 142.232,104.602 z" fill-opacity="0" stroke="#FF0000" stroke-width="0.5" stroke-linejoin="round"/>
      <path d="M160.531,41.339 C160.531,40.339 160.682,39.347 160.978,38.41 L167.611,17.393 C170.03,9.73 179.324,10.359 180.995,18.299 L185.417,39.316 C185.557,39.977 185.627,40.657 185.627,41.339 L185.627,99.135 C185.627,100.43 185.373,101.707 184.886,102.865 L180.464,113.373 C177.722,119.887 169.763,119.391 167.611,112.572 L160.978,91.555 C160.682,90.619 160.531,89.627 160.531,88.626 L160.531,41.339 z" fill-opacity="0" stroke="#0000FF" stroke-width="0.5" stroke-linejoin="round"/>
      <path d="M158.287,47.135 L166.266,27.188 L174.162,30.346 L166.182,50.293 L158.287,47.135 z" fill-opacity="0" stroke="#FF0000" stroke-width="0.5"/>
      <path d="M178.377,26.827 L166.544,22.093 L169.702,14.198 L181.535,18.931 L178.377,26.827 z" fill-opacity="0" stroke="#FF0000" stroke-width="0.5"/>
      <path d="M156.406,104.602 C156.406,107.733 153.867,110.271 150.736,110.271 C147.605,110.271 145.067,107.733 145.067,104.602 C145.067,101.471 147.605,98.932 150.736,98.932 C153.867,98.932 156.406,101.471 156.406,104.602 z" fill-opacity="0" stroke="#0000FF" stroke-width="0.5"/>
      <path d="M163.143,103.274 L176.585,97.569 L179.908,105.397 L166.466,111.102 L163.143,103.274 z" fill-opacity="0" stroke="#FF0000" stroke-width="0.5"/>
      <path d="M153.571,36.57 L157.823,36.57" fill-opacity="0" stroke="#FF0000" stroke-width="0.5"/>
      <path d="M153.571,96.098 L157.823,96.098" fill-opacity="0" stroke="#FF0000" stroke-width="0.5"/>
      <path d="M153.571,64.917 L157.823,64.917" fill-opacity="0" stroke="#FF0000" stroke-width="0.5"/>
      <path d="M153.571,96.742 C157.341,98.001 158.859,100.825 159.24,104.602 C158.978,107.205 159.29,105.786 158.027,108.789" fill-opacity="0" stroke="#0000FF" stroke-width="0.5"/>
    </g>
    <g>
      <path d="M315.146,114.458 C315.146,109.761 318.953,105.954 323.65,105.954 C325.857,106.177 324.834,105.904 326.734,106.704 L326.484,105.954 L326.484,46.427 L334.988,20.915 L343.492,20.915 L351.996,40.757 L351.996,117.293 L332.154,122.962 L330.814,118.944 C329.921,121.098 327.38,122.173 325.363,122.789 C324.814,122.957 324.221,122.904 323.65,122.962 C318.953,122.962 315.146,119.155 315.146,114.458 z" fill-opacity="0" stroke="#FF0000" stroke-width="0.5"/>
      <path d="M329.319,114.458 C329.319,117.589 326.781,120.127 323.65,120.127 C320.519,120.127 317.98,117.589 317.98,114.458 C317.98,111.327 320.519,108.789 323.65,108.789 C326.781,108.789 329.319,111.327 329.319,114.458 z" fill-opacity="0" stroke="#0000FF" stroke-width="0.5"/>
      <path d="M326.484,46.426 L330.736,46.426" fill-opacity="0" stroke="#FF0000" stroke-width="0.5"/>
      <path d="M326.484,105.954 L330.736,105.954" fill-opacity="0" stroke="#FF0000" stroke-width="0.5"/>
      <path d="M326.484,74.773 L330.736,74.773" fill-opacity="0" stroke="#FF0000" stroke-width="0.5"/>
      <path d="M330.736,105.954 L351.996,105.954" fill-opacity="0" stroke="#0000FF" stroke-width="0.5"/>
      <path d="M330.736,74.773 L351.996,74.773" fill-opacity="0" stroke="#0000FF" stroke-width="0.5"/>
      <path d="M330.736,46.426 L351.996,46.426" fill-opacity="0" stroke="#0000FF" stroke-width="0.5"/>
      <path d="M326.484,106.598 C330.254,107.858 331.773,110.681 332.154,114.458 C331.891,117.062 332.204,115.642 330.94,118.645" fill-opacity="0" stroke="#0000FF" stroke-width="0.5"/>
    </g>
    <g>
      <path d="M102.814,104.602 C102.814,101.471 100.276,98.932 97.145,98.932 C94.81,99 94.106,99.769 92.576,101.299 L94.31,96.098 L94.31,36.57 L85.806,11.058 L83.235,11.058 L80.616,8.12 L79.48,9.133 C77.454,7.894 78.237,8.092 77.4,7.889 L77.449,6.371 L71.131,6.169 L71.079,7.798 C69.236,8.472 69.974,8.025 68.769,8.965 L67.536,7.813 L63.572,12.762 L65.241,14.049 L64.538,16.495 L62.448,16.028 L61.069,22.197 L63.091,22.649 L62.634,24.476 L60.69,24.056 L59.355,30.234 L61.1,30.611 L60.618,32.539 L58.845,32.205 L57.677,38.418 L59.314,38.725 L59.302,38.909 L59.302,41.53 L57.498,41.53 L57.498,47.851 L59.302,47.851 L59.302,49.699 L57.498,49.699 L57.498,56.02 L59.302,56.02 L59.302,57.868 L57.498,57.868 L57.498,64.189 L59.302,64.189 L59.302,66.037 L57.498,66.037 L57.498,72.358 L59.302,72.358 L59.302,74.206 L57.498,74.206 L57.498,80.527 L59.302,80.527 L59.302,82.375 L57.498,82.375 L57.498,88.696 L59.302,88.696 L59.302,90.544 L57.498,90.544 L57.498,96.865 L59.302,96.865 L59.302,98.896 L59.278,98.786 L57.186,99.245 L58.541,105.419 L60.154,105.065 L60.253,105.296 L60.991,106.772 L59.197,107.637 L61.822,113.012 L63.822,112.435 L64.129,113.519 L62.434,114.828 L66.297,119.831 L67.588,118.834 C68.608,119.896 68.122,119.58 68.88,119.999 L68.533,121.697 L74.726,122.962 L75.028,121.482 C76.401,121.41 75.478,121.517 77.72,120.761 L78.637,121.928 L83.606,118.021 L82.053,116.517 L83.188,113.666 L85.015,114.28 L85.692,112.263 L88.641,113.106 L91.475,104.602 C91.602,107.915 93.987,109.953 97.145,110.271 C100.276,110.271 102.814,107.733 102.814,104.602 z" fill-opacity="0" stroke="#FF0000" stroke-width="0.5" stroke-linejoin="round"/>
      <path d="M87.35,41.339 C87.35,40.339 87.199,39.347 86.903,38.41 L80.27,17.393 C77.851,9.73 68.557,10.359 66.886,18.299 L62.463,39.316 C62.324,39.977 62.254,40.657 62.254,41.339 L62.254,99.135 C62.254,100.43 62.508,101.707 62.995,102.865 L67.417,113.373 C70.159,119.887 78.117,119.391 80.27,112.572 L86.903,91.555 C87.199,90.619 87.35,89.627 87.35,88.626 L87.35,41.339 z" fill-opacity="0" stroke="#0000FF" stroke-width="0.5" stroke-linejoin="round"/>
      <path d="M82.753,102.619 L73.967,102.619 L73.967,26.084 L82.671,26.084 L79.77,16.894 L79.644,16.574 L79.762,17.747 C79.762,21.385 76.813,24.334 73.175,24.334 C69.537,24.334 66.588,21.385 66.589,17.747 L66.692,16.724 L66.386,17.799 L61.964,38.816 C61.824,39.477 61.754,40.157 61.754,40.839 L61.754,50.872 C61.754,48.65 63.556,46.848 65.778,46.848 C68,46.848 69.802,48.65 69.802,50.872 L69.802,50.872 C69.802,53.095 68,54.896 65.778,54.896 C63.556,54.896 61.754,53.095 61.754,50.872 L61.754,59.747 C61.754,57.525 63.556,55.723 65.778,55.723 C68,55.723 69.802,57.525 69.802,59.747 L69.802,59.747 C69.802,61.97 68,63.771 65.778,63.771 C63.556,63.771 61.754,61.97 61.754,59.747 L61.754,98.635 C61.754,99.93 62.008,101.207 62.495,102.365 L66.917,112.873 C67.51,114.053 67.223,113.682 67.575,114.118 C66.676,111.981 66.908,113.007 66.714,111.081 C66.713,107.512 69.606,104.619 73.175,104.619 C76.407,104.945 78.577,106.601 79.506,109.779 L79.637,111.081 C79.446,112.969 79.675,111.981 78.82,114.011 C79.537,112.916 79.195,113.549 79.77,112.072 L82.753,102.619 z M70.012,78.747 C70.012,80.97 68.21,82.771 65.988,82.771 C63.765,82.771 61.963,80.97 61.964,78.747 C61.963,76.525 63.765,74.723 65.988,74.723 C68.21,74.723 70.012,76.525 70.012,78.747 z M68.137,78.747 C68.137,77.56 67.174,76.598 65.988,76.598 C64.801,76.598 63.838,77.56 63.839,78.747 C63.838,79.934 64.801,80.896 65.988,80.896 C67.174,80.896 68.137,79.934 68.137,78.747 z M70.012,99.497 C70.012,101.72 68.21,103.521 65.988,103.521 C63.765,103.521 61.963,101.72 61.964,99.497 C61.963,97.275 63.765,95.473 65.988,95.473 C68.21,95.473 70.012,97.275 70.012,99.497 z M68.137,99.497 C68.137,98.31 67.174,97.348 65.988,97.348 C64.801,97.348 63.838,98.31 63.839,99.497 C63.838,100.684 64.801,101.646 65.988,101.646 C67.174,101.646 68.137,100.684 68.137,99.497 z M70.012,40.872 C70.012,43.095 68.21,44.896 65.988,44.896 C63.765,44.896 61.963,43.095 61.964,40.872 C61.963,38.65 63.765,36.848 65.988,36.848 C68.21,36.848 70.012,38.65 70.012,40.872 z M68.137,40.872 C68.137,39.685 67.174,38.723 65.988,38.723 C64.801,38.723 63.838,39.685 63.839,40.872 C63.838,42.059 64.801,43.021 65.988,43.021 C67.174,43.021 68.137,42.059 68.137,40.872 z M70.012,90.497 C70.012,92.72 68.21,94.521 65.988,94.521 C63.765,94.521 61.963,92.72 61.964,90.497 C61.963,88.275 63.765,86.473 65.988,86.473 C68.21,86.473 70.012,88.275 70.012,90.497 z M68.137,90.497 C68.137,89.31 67.174,88.348 65.988,88.348 C64.801,88.348 63.838,89.31 63.839,90.497 C63.838,91.684 64.801,92.646 65.988,92.646 C67.174,92.646 68.137,91.684 68.137,90.497 z M70.012,69.872 C70.012,72.095 68.21,73.896 65.988,73.896 C63.765,73.896 61.963,72.095 61.964,69.872 C61.963,67.65 63.765,65.848 65.988,65.848 C68.21,65.848 70.012,67.65 70.012,69.872 z M68.137,69.872 C68.137,68.685 67.174,67.723 65.988,67.723 C64.801,67.723 63.838,68.685 63.839,69.872 C63.838,71.059 64.801,72.021 65.988,72.021 C67.174,72.021 68.137,71.059 68.137,69.872 z M71.887,32.046 C71.887,34.268 70.085,36.07 67.863,36.07 C65.64,36.07 63.838,34.268 63.839,32.046 C63.838,29.824 65.64,28.022 67.863,28.022 C70.085,28.022 71.887,29.824 71.887,32.046 z M70.012,32.046 C70.012,30.859 69.049,29.897 67.863,29.897 C66.676,29.897 65.713,30.859 65.714,32.046 C65.713,33.233 66.676,34.195 67.863,34.195 C69.049,34.195 70.012,33.233 70.012,32.046 z" fill="#000000"/>
      <path d="M67.927,59.747 C67.927,58.56 66.965,57.598 65.778,57.598 C64.591,57.598 63.629,58.56 63.629,59.747 C63.629,60.934 64.591,61.896 65.778,61.896 C66.965,61.896 67.927,60.934 67.927,59.747 z" fill="#000000"/>
      <path d="M67.927,50.872 C67.927,49.685 66.965,48.723 65.778,48.723 C64.591,48.723 63.629,49.685 63.629,50.872 C63.629,52.059 64.591,53.021 65.778,53.021 C66.965,53.021 67.927,52.059 67.927,50.872 z" fill="#000000"/>
      <path d="M75.324,17.747 C75.324,16.56 74.362,15.598 73.175,15.598 C71.988,15.598 71.026,16.56 71.026,17.747 C71.026,18.934 71.988,19.896 73.175,19.896 C74.362,19.896 75.324,18.934 75.324,17.747 z" fill="#000000"/>
      <path d="M75.324,111.081 C75.324,109.894 74.362,108.932 73.175,108.932 C71.988,108.932 71.026,109.894 71.026,111.081 C71.026,112.268 71.988,113.23 73.175,113.23 C74.362,113.23 75.324,112.268 75.324,111.081 z" fill="#000000"/>
      <path d="M70.927,117.013 L70.517,116.841 C70.751,116.994 70.617,116.931 70.927,117.013 z" fill="#000000"/>
      <path d="M78.074,115.153 L77.849,115.378 C78.045,115.215 77.979,115.298 78.074,115.153 z" fill="#000000"/>
      <path d="M94.31,36.57 L90.058,36.57" fill-opacity="0" stroke="#FF0000" stroke-width="0.5"/>
      <path d="M94.31,96.098 L90.058,96.098" fill-opacity="0" stroke="#FF0000" stroke-width="0.5"/>
      <path d="M94.31,64.917 L90.058,64.917" fill-opacity="0" stroke="#FF0000" stroke-width="0.5"/>
    </g>
    <g>
      <path d="M28.065,25.512 L39.685,25.512 L39.685,93.769 C40.517,92.628 41.607,92.197 42.955,92.061 C45.178,92.061 46.979,93.863 46.979,96.085 C46.979,98.308 45.178,100.109 42.955,100.109 C41.339,100.08 40.748,99.465 39.685,98.402 L39.685,102.047 L28.147,102.047 L31.048,111.238 L31.174,111.557 L31.056,110.384 C31.056,106.746 34.005,103.797 37.643,103.797 C41.281,103.797 44.229,106.746 44.229,110.384 L44.126,111.407 L44.432,110.332 L48.854,89.315 C48.994,88.654 49.064,87.974 49.064,87.292 L49.064,77.259 C49.064,79.481 47.262,81.283 45.04,81.283 C42.817,81.283 41.016,79.481 41.016,77.259 L41.016,77.259 C41.016,75.037 42.817,73.235 45.04,73.235 C47.262,73.235 49.064,75.037 49.064,77.259 L49.064,68.384 C49.064,70.606 47.262,72.408 45.04,72.408 C42.817,72.408 41.016,70.606 41.016,68.384 L41.016,68.384 C41.016,66.162 42.817,64.36 45.04,64.36 C47.262,64.36 49.064,66.162 49.064,68.384 L49.064,29.496 C49.064,28.202 48.81,26.924 48.323,25.766 L43.901,15.258 C43.308,14.078 43.595,14.449 43.243,14.014 C44.142,16.15 43.91,15.124 44.104,17.05 C44.104,20.619 41.211,23.512 37.643,23.512 C34.411,23.186 32.241,21.53 31.312,18.352 L31.181,17.05 C31.372,15.162 31.143,16.15 31.998,14.12 C31.281,15.216 31.623,14.582 31.048,16.059 L28.065,25.512 z M40.806,49.384 C40.806,47.162 42.608,45.36 44.83,45.36 C47.053,45.36 48.854,47.162 48.854,49.384 C48.854,51.606 47.053,53.408 44.83,53.408 C42.608,53.408 40.806,51.606 40.806,49.384 z M42.681,49.384 C42.681,50.571 43.643,51.533 44.83,51.533 C46.017,51.533 46.979,50.571 46.979,49.384 C46.979,48.197 46.017,47.235 44.83,47.235 C43.643,47.235 42.681,48.197 42.681,49.384 z M40.806,28.634 C40.806,26.412 42.608,24.61 44.83,24.61 C47.053,24.61 48.854,26.412 48.854,28.634 C48.854,30.856 47.053,32.658 44.83,32.658 C42.608,32.658 40.806,30.856 40.806,28.634 z M42.681,28.634 C42.681,29.821 43.643,30.783 44.83,30.783 C46.017,30.783 46.979,29.821 46.979,28.634 C46.979,27.447 46.017,26.485 44.83,26.485 C43.643,26.485 42.681,27.447 42.681,28.634 z M40.806,87.259 C40.806,85.037 42.608,83.235 44.83,83.235 C47.053,83.235 48.854,85.037 48.854,87.259 C48.854,89.481 47.053,91.283 44.83,91.283 C42.608,91.283 40.806,89.481 40.806,87.259 z M42.681,87.259 C42.681,88.446 43.643,89.408 44.83,89.408 C46.017,89.408 46.979,88.446 46.979,87.259 C46.979,86.072 46.017,85.11 44.83,85.11 C43.643,85.11 42.681,86.072 42.681,87.259 z M40.806,37.634 C40.806,35.412 42.608,33.61 44.83,33.61 C47.053,33.61 48.854,35.412 48.854,37.634 C48.854,39.856 47.053,41.658 44.83,41.658 C42.608,41.658 40.806,39.856 40.806,37.634 z M42.681,37.634 C42.681,38.821 43.643,39.783 44.83,39.783 C46.017,39.783 46.979,38.821 46.979,37.634 C46.979,36.447 46.017,35.485 44.83,35.485 C43.643,35.485 42.681,36.447 42.681,37.634 z M40.806,58.259 C40.806,56.037 42.608,54.235 44.83,54.235 C47.053,54.235 48.854,56.037 48.854,58.259 C48.854,60.481 47.053,62.283 44.83,62.283 C42.608,62.283 40.806,60.481 40.806,58.259 z M42.681,58.259 C42.681,59.446 43.643,60.408 44.83,60.408 C46.017,60.408 46.979,59.446 46.979,58.259 C46.979,57.072 46.017,56.11 44.83,56.11 C43.643,56.11 42.681,57.072 42.681,58.259 z" fill="#000000"/>
      <path d="M42.891,68.384 C42.891,69.571 43.853,70.533 45.04,70.533 C46.227,70.533 47.189,69.571 47.189,68.384 C47.189,67.197 46.227,66.235 45.04,66.235 C43.853,66.235 42.891,67.197 42.891,68.384 z" fill="#000000"/>
      <path d="M42.891,77.259 C42.891,78.446 43.853,79.408 45.04,79.408 C46.227,79.408 47.189,78.446 47.189,77.259 C47.189,76.072 46.227,75.11 45.04,75.11 C43.853,75.11 42.891,76.072 42.891,77.259 z" fill="#000000"/>
      <path d="M40.806,96.085 C40.806,97.272 41.768,98.234 42.955,98.234 C44.142,98.234 45.104,97.272 45.104,96.085 C45.104,94.898 44.142,93.936 42.955,93.936 C41.768,93.936 40.806,94.898 40.806,96.085 z" fill="#000000"/>
      <path d="M35.494,110.384 C35.494,111.571 36.456,112.533 37.643,112.533 C38.83,112.533 39.792,111.571 39.792,110.384 C39.792,109.197 38.83,108.235 37.643,108.235 C36.456,108.235 35.494,109.197 35.494,110.384 z" fill="#000000"/>
      <path d="M35.494,17.05 C35.494,18.237 36.456,19.199 37.643,19.199 C38.83,19.199 39.792,18.237 39.792,17.05 C39.792,15.863 38.83,14.901 37.643,14.901 C36.456,14.901 35.494,15.863 35.494,17.05 z" fill="#000000"/>
      <path d="M6.169,24.53 C6.169,29.226 9.977,33.034 14.673,33.034 C16.88,32.811 15.858,33.083 17.758,32.284 L17.508,33.033 L17.508,92.561 L26.012,118.073 L28.582,118.073 L31.202,121.011 L32.337,119.999 C34.364,121.237 33.581,121.04 34.418,121.242 L34.369,122.76 L40.687,122.962 L40.739,121.333 C42.581,120.659 41.844,121.106 43.049,120.167 L44.282,121.319 L48.246,116.37 L46.577,115.083 L47.279,112.636 L49.37,113.103 L50.749,106.934 L48.727,106.483 L49.184,104.656 L51.128,105.076 L52.463,98.897 L50.718,98.52 L51.2,96.592 L52.973,96.926 L54.141,90.714 L52.504,90.406 L52.515,90.223 L52.515,87.601 L54.32,87.601 L54.32,81.28 L52.515,81.28 L52.515,79.432 L54.32,79.432 L54.32,73.111 L52.515,73.111 L52.515,71.263 L54.32,71.263 L54.32,64.942 L52.515,64.942 L52.515,63.094 L54.32,63.094 L54.32,56.773 L52.515,56.773 L52.515,54.925 L54.32,54.925 L54.32,48.604 L52.515,48.604 L52.515,46.756 L54.32,46.756 L54.32,40.435 L52.515,40.435 L52.515,38.587 L54.32,38.587 L54.32,32.266 L52.515,32.266 L52.515,30.236 L52.539,30.346 L54.632,29.886 L53.277,23.712 L51.664,24.066 L51.565,23.836 L50.827,22.359 L52.621,21.495 L49.996,16.12 L47.996,16.697 L47.688,15.612 L49.384,14.303 L45.52,9.3 L44.23,10.297 C43.21,9.235 43.696,9.551 42.938,9.132 L43.285,7.435 L37.092,6.169 L36.789,7.65 C35.417,7.722 36.34,7.614 34.098,8.37 L33.181,7.203 L28.212,11.11 L29.765,12.614 L28.63,15.465 L26.803,14.852 L26.126,16.868 L23.177,16.026 L21.838,20.043 C20.944,17.889 18.403,16.814 16.387,16.198 C15.838,16.031 15.245,16.083 14.673,16.026 C9.977,16.026 6.169,19.833 6.169,24.53 z" fill-opacity="0" stroke="#FF0000" stroke-width="0.5" stroke-linejoin="round"/>
      <path d="M24.468,87.792 C24.468,88.793 24.619,89.785 24.915,90.721 L31.548,111.738 C33.967,119.402 43.261,118.773 44.932,110.832 L49.354,89.815 C49.494,89.154 49.564,88.474 49.564,87.792 L49.564,29.996 C49.564,28.702 49.31,27.424 48.823,26.266 L44.401,15.758 C41.659,9.244 33.7,9.74 31.548,16.559 L24.915,37.576 C24.619,38.513 24.468,39.505 24.468,40.505 L24.468,87.792 z" fill-opacity="0" stroke="#0000FF" stroke-width="0.5" stroke-linejoin="round"/>
      <path d="M22.224,81.996 L30.203,101.944 L38.099,98.785 L30.119,78.838 L22.224,81.996 z" fill-opacity="0" stroke="#FF0000" stroke-width="0.5"/>
      <path d="M42.314,102.304 L30.481,107.038 L33.639,114.934 L45.472,110.2 L42.314,102.304 z" fill-opacity="0" stroke="#FF0000" stroke-width="0.5"/>
      <path d="M20.343,24.53 C20.343,21.399 17.804,18.86 14.673,18.86 C11.542,18.86 9.004,21.399 9.004,24.53 C9.004,27.661 11.542,30.199 14.673,30.199 C17.804,30.199 20.343,27.661 20.343,24.53 z" fill-opacity="0" stroke="#0000FF" stroke-width="0.5"/>
      <path d="M27.08,25.857 L40.522,31.562 L43.845,23.735 L30.403,18.029 L27.08,25.857 z" fill-opacity="0" stroke="#FF0000" stroke-width="0.5"/>
      <path d="M17.508,92.561 L21.76,92.561" fill-opacity="0" stroke="#FF0000" stroke-width="0.5"/>
      <path d="M17.508,33.034 L21.76,33.034" fill-opacity="0" stroke="#FF0000" stroke-width="0.5"/>
      <path d="M17.508,64.215 L21.76,64.215" fill-opacity="0" stroke="#FF0000" stroke-width="0.5"/>
      <path d="M17.508,32.389 C21.278,31.13 22.796,28.306 23.177,24.53 C22.915,21.926 23.227,23.345 21.964,20.343" fill-opacity="0" stroke="#0000FF" stroke-width="0.5"/>
    </g>
    <g>
      <path d="M272.626,114.458 C272.626,109.761 268.819,105.954 264.122,105.954 C261.915,106.177 262.938,105.904 261.038,106.704 L261.287,105.954 L261.287,46.427 L252.783,20.915 L244.28,20.915 L235.776,40.757 L235.776,117.293 L255.618,122.962 L256.957,118.944 C257.851,121.098 260.392,122.173 262.408,122.789 C262.957,122.957 263.551,122.904 264.122,122.962 C268.819,122.962 272.626,119.155 272.626,114.458 z" fill-opacity="0" stroke="#FF0000" stroke-width="0.5"/>
      <path d="M258.453,114.458 C258.453,117.589 260.991,120.127 264.122,120.127 C267.253,120.127 269.791,117.589 269.791,114.458 C269.791,111.327 267.253,108.789 264.122,108.789 C260.991,108.789 258.453,111.327 258.453,114.458 z" fill-opacity="0" stroke="#0000FF" stroke-width="0.5"/>
      <path d="M261.287,46.426 L257.035,46.426" fill-opacity="0" stroke="#FF0000" stroke-width="0.5"/>
      <path d="M261.287,105.954 L257.035,105.954" fill-opacity="0" stroke="#FF0000" stroke-width="0.5"/>
      <path d="M261.287,74.773 L257.035,74.773" fill-opacity="0" stroke="#FF0000" stroke-width="0.5"/>
      <path d="M257.035,105.954 L235.776,105.954" fill-opacity="0" stroke="#0000FF" stroke-width="0.5"/>
      <path d="M257.035,74.773 L235.776,74.773" fill-opacity="0" stroke="#0000FF" stroke-width="0.5"/>
      <path d="M257.035,46.426 L235.776,46.426" fill-opacity="0" stroke="#0000FF" stroke-width="0.5"/>
      <path d="M261.287,106.598 C257.518,107.858 255.999,110.681 255.618,114.458 C255.881,117.062 255.568,115.642 256.832,118.645" fill-opacity="0" stroke="#0000FF" stroke-width="0.5"/>
    </g>
    <g>
      <path d="M96.878,57.193 L105.382,48.689 L113.886,48.689 L113.886,62.862 L133.728,62.862 L133.728,48.689 L142.232,48.689 L150.736,57.193 L150.736,88.374 L139.398,88.374 L139.398,105.382 L128.059,105.382 L128.059,96.769 L119.555,96.769 L119.555,105.382 L108.217,105.382 L108.217,88.374 L96.878,88.374 L96.878,57.193 z" fill-opacity="0" stroke="#FF0000" stroke-width="0.5"/>
      <path d="M111.051,102.547 L116.503,102.547" fill-opacity="0" stroke="#0000FF" stroke-width="0.5"/>
      <path d="M111.051,100.927 L116.503,100.927" fill-opacity="0" stroke="#0000FF" stroke-width="0.5"/>
      <path d="M111.051,99.308 L116.503,99.308" fill-opacity="0" stroke="#0000FF" stroke-width="0.5"/>
      <path d="M111.051,97.688 L116.503,97.688" fill-opacity="0" stroke="#0000FF" stroke-width="0.5"/>
      <path d="M111.051,96.068 L116.503,96.068" fill-opacity="0" stroke="#0000FF" stroke-width="0.5"/>
      <path d="M111.051,94.448 L116.503,94.448" fill-opacity="0" stroke="#0000FF" stroke-width="0.5"/>
      <path d="M111.051,92.828 L116.503,92.828" fill-opacity="0" stroke="#0000FF" stroke-width="0.5"/>
      <path d="M111.051,91.209 L116.503,91.209" fill-opacity="0" stroke="#0000FF" stroke-width="0.5"/>
      <path d="M130.894,102.547 L136.345,102.547" fill-opacity="0" stroke="#0000FF" stroke-width="0.5"/>
      <path d="M130.894,100.927 L136.345,100.927" fill-opacity="0" stroke="#0000FF" stroke-width="0.5"/>
      <path d="M130.894,99.308 L136.345,99.308" fill-opacity="0" stroke="#0000FF" stroke-width="0.5"/>
      <path d="M130.894,97.688 L136.345,97.688" fill-opacity="0" stroke="#0000FF" stroke-width="0.5"/>
      <path d="M130.894,96.068 L136.345,96.068" fill-opacity="0" stroke="#0000FF" stroke-width="0.5"/>
      <path d="M130.894,94.448 L136.345,94.448" fill-opacity="0" stroke="#0000FF" stroke-width="0.5"/>
      <path d="M130.894,92.828 L136.345,92.828" fill-opacity="0" stroke="#0000FF" stroke-width="0.5"/>
      <path d="M130.894,91.209 L136.345,91.209" fill-opacity="0" stroke="#0000FF" stroke-width="0.5"/>
    </g>
    <g>
      <path d="M281.13,65.696 L293.828,65.696 L293.828,57.193 L315.312,57.193 L315.312,65.696 L320.116,65.696 L320.116,96.561 L315.312,96.561 L315.312,105.066 L293.828,105.066 L293.828,96.561 L281.13,96.561 L281.13,90.891 L289.251,90.891 L289.251,71.049 L281.13,71.049 L281.13,65.696 z" fill-opacity="0" stroke="#FF0000" stroke-width="0.5"/>
      <path d="M295.303,90.891 L295.303,82.387 L315.312,82.387 L315.312,90.891 L295.303,90.891 z" fill-opacity="0" stroke="#0000FF" stroke-width="0.5"/>
      <path d="M295.303,79.553 L295.303,71.049 L315.312,71.049 L315.312,79.553 L295.303,79.553 z" fill-opacity="0" stroke="#0000FF" stroke-width="0.5"/>
    </g>
    <g>
      <path d="M261.287,25.696 L270.457,25.696 L270.457,14.672 L280.925,14.672 L280.925,6.169 L295.529,6.17 L295.529,14.672 L295.303,14.672 L295.303,45.537 L295.529,45.537 L295.529,54.042 L280.926,54.042 L280.925,45.537 L270.457,45.537 L270.457,34.2 L261.287,34.2 L261.287,25.696 z" fill-opacity="0" stroke="#FF0000" stroke-width="0.5"/>
      <path d="M275.461,42.702 L275.461,31.364 L292.635,31.364 L292.635,42.702 L275.461,42.702 z" fill-opacity="0" stroke="#0000FF" stroke-width="0.5"/>
      <path d="M275.461,28.529 L275.461,17.19 L292.635,17.19 L292.635,28.529 L275.461,28.529 z" fill-opacity="0" stroke="#0000FF" stroke-width="0.5"/>
    </g>
    <g>
      <path d="M281.13,88.374 L276.867,88.374 L276.867,96.878 L264.122,96.878 L264.122,88.374 L264.99,88.374 L264.99,57.193 L264.122,57.193 L264.122,48.689 L276.867,48.689 L276.867,57.193 L281.13,57.193 L281.13,60.972 L275.461,62.862 L275.461,83.021 L281.13,84.911 L281.13,88.374 z" fill-opacity="0" stroke="#FF0000" stroke-width="0.5"/>
      <path d="M268.374,60.028 L271.209,60.028 L271.209,62.862 L268.374,65.697 L268.374,68.532 L271.209,71.366 L271.209,74.201 L268.374,77.035 L268.374,79.87 L271.209,82.705 L271.209,85.539 L268.374,85.539" fill-opacity="0" stroke="#0000FF" stroke-width="0.5"/>
    </g>
    <g>
      <path d="M99.713,17.072 L105.382,11.839 L113.886,11.839 L113.886,20.343 L133.728,20.343 L133.728,11.839 L142.232,11.839 L147.902,17.072 L147.902,45.854 L99.713,45.854 L99.713,17.072 z" fill-opacity="0" stroke="#FF0000" stroke-width="0.5"/>
      <g>
        <path d="M135.146,23.493 C140.625,23.494 145.067,27.865 145.067,33.257 C145.067,38.649 140.625,43.02 135.146,43.02 C129.666,43.02 125.224,38.649 125.224,33.257 C125.224,27.865 129.666,23.494 135.146,23.494 z M135.146,26.012 C131.232,26.012 128.059,29.185 128.059,33.098 C128.059,37.012 131.232,40.185 135.146,40.185 C139.06,40.185 142.232,37.012 142.232,33.098 C142.232,29.185 139.06,26.012 135.146,26.012 z" fill="#000000"/>
        <path d="M135.146,23.493 C140.625,23.494 145.067,27.865 145.067,33.257 C145.067,38.649 140.625,43.02 135.146,43.02 C129.666,43.02 125.224,38.649 125.224,33.257 C125.224,27.865 129.666,23.494 135.146,23.494 z M135.146,26.012 C131.232,26.012 128.059,29.185 128.059,33.098 C128.059,37.012 131.232,40.185 135.146,40.185 C139.06,40.185 142.232,37.012 142.232,33.098 C142.232,29.185 139.06,26.012 135.146,26.012 z" fill-opacity="0" stroke="#0000FF" stroke-width="0.5"/>
      </g>
      <path d="M111.051,37.351 C111.051,38.916 109.782,40.185 108.217,40.185 C106.651,40.185 105.382,38.916 105.382,37.351 C105.382,35.785 106.651,34.516 108.217,34.516 C109.782,34.516 111.051,35.785 111.051,37.351 z" fill-opacity="0" stroke="#0000FF" stroke-width="0.5"/>
      <path d="M111.051,28.847 C111.051,30.412 109.782,31.681 108.217,31.681 C106.651,31.681 105.382,30.412 105.382,28.847 C105.382,27.281 106.651,26.012 108.217,26.012 C109.782,26.012 111.051,27.281 111.051,28.847 z" fill-opacity="0" stroke="#0000FF" stroke-width="0.5"/>
      <path d="M111.051,20.185 C111.051,21.751 109.782,23.02 108.217,23.02 C106.651,23.02 105.382,21.751 105.382,20.185 C105.382,18.62 106.651,17.351 108.217,17.351 C109.782,17.351 111.051,18.62 111.051,20.185 z" fill-opacity="0" stroke="#0000FF" stroke-width="0.5"/>
    </g>
    <g>
      <path d="M320.822,6.176 C322.387,6.176 323.656,7.445 323.656,9.011 C323.653,10.108 323.158,10.61 322.435,11.333 C323.283,12.814 323.572,14.422 323.656,16.097 C323.705,17.514 323.295,18.846 322.752,20.131 L323.656,20.131 L323.656,26.019 L303.814,26.019 L303.814,20.131 L304.717,20.131 C304.04,18.889 303.884,17.484 303.814,16.097 C303.735,14.379 304.378,12.87 305.035,11.333 C304.223,10.739 303.911,9.972 303.814,9.011 C303.814,7.445 305.083,6.176 306.648,6.176 C307.746,6.179 308.248,6.675 308.97,7.397 C310.452,6.549 312.06,6.261 313.735,6.176 C315.453,6.097 316.963,6.741 318.499,7.397 C319.093,6.585 319.86,6.273 320.822,6.176 z" fill-opacity="0" stroke="#FF0000" stroke-width="0.5"/>
      <path d="M313.735,23.467 C309.665,23.467 306.365,20.168 306.365,16.097 C306.365,12.027 309.665,8.727 313.735,8.727 C317.805,8.727 321.105,12.027 321.105,16.097 C321.105,20.168 317.805,23.467 313.735,23.467 z" fill-opacity="0" stroke="#FF0000" stroke-width="0.5"/>
    </g>
    <g>
      <path d="M317.987,31.688 C319.553,31.688 320.822,32.957 320.822,34.522 C320.819,35.62 320.323,36.122 319.6,36.844 C320.449,38.326 320.737,39.934 320.822,41.609 C320.871,43.026 320.461,44.358 319.918,45.643 L320.822,45.643 L320.822,51.53 L300.979,51.53 L300.979,45.643 L301.883,45.643 C301.205,44.401 301.049,42.996 300.979,41.609 C300.9,39.891 301.544,38.381 302.2,36.844 C301.388,36.251 301.076,35.484 300.979,34.522 C300.979,32.957 302.248,31.688 303.814,31.688 C304.911,31.69 305.413,32.186 306.136,32.909 C307.617,32.061 309.225,31.772 310.9,31.688 C312.618,31.609 314.128,32.252 315.665,32.909 C316.259,32.097 317.025,31.785 317.987,31.688 z" fill-opacity="0" stroke="#FF0000" stroke-width="0.5"/>
      <path d="M310.9,48.979 C306.83,48.979 303.53,45.679 303.53,41.609 C303.53,37.539 306.83,34.239 310.9,34.239 C314.971,34.239 318.27,37.539 318.27,41.609 C318.27,45.679 314.971,48.979 310.9,48.979 z" fill-opacity="0" stroke="#FF0000" stroke-width="0.5"/>
    </g>
    <g>
      <path d="M275.682,125.224 L275.682,119.337 L276.586,119.337 C275.908,118.095 275.752,116.69 275.682,115.303 C275.682,109.824 280.124,105.382 285.603,105.382 C291.083,105.382 295.525,109.824 295.525,115.303 C295.574,116.72 295.164,118.052 294.621,119.337 L295.525,119.337 L295.525,125.224 L275.682,125.224 z" fill-opacity="0" stroke="#FF0000" stroke-width="0.5"/>
      <path d="M285.603,122.673 C281.533,122.673 278.233,119.374 278.233,115.303 C278.233,111.233 281.533,107.933 285.603,107.933 C289.674,107.933 292.973,111.233 292.973,115.303 C292.973,119.374 289.674,122.673 285.603,122.673 z" fill-opacity="0" stroke="#FF0000" stroke-width="0.5"/>
    </g>
  </g>
</svg>
